# xmcd
#
# Track frame offsets:
#	182
#	12105
#	25897
#	38270
#	51485
#	66082
#	80380
#	92972
#	105692
#	116677
#
# Disc length: 1717 seconds
#
# Revision: 1
# Processed by: cddbd v1.4PL0 Copyright (c) Steve Scherf et al.
# Submitted via: audiograbber 1.81.03
#
DISCID=7706b30a
DTITLE=Little Walter - My Babe
DYEAR=1900
DGENRE=Blues
TTITLE0=My Babe
TTITLE1=You're So Fine
TTITLE2=Last Night
TTITLE3=Roller Coaster
TTITLE4=Blue Light
TTITLE5=Sad Hours
TTITLE6=Oh Baby
TTITLE7=Tell Me, Mama
TTITLE8=Who
TTITLE9=I Got to Go
EXTD=
EXTT0=
EXTT1=
EXTT2=
EXTT3=
EXTT4=
EXTT5=
EXTT6=
EXTT7=
EXTT8=
EXTT9=
PLAYORDER=
